<?xml version="1.0" encoding="utf-8"?>
<!-- Generator: Adobe Illustrator 26.0.1, SVG Export Plug-In . SVG Version: 6.00 Build 0)  -->
<svg version="1.1" xmlns="http://www.w3.org/2000/svg" xmlns:xlink="http://www.w3.org/1999/xlink" x="0px" y="0px"
	 viewBox="0 0 180 180" style="enable-background:new 0 0 180 180;" xml:space="preserve">
<style type="text/css">
	.st0{fill:#572C7A;}
	.st1{fill:#282F39;}
	.st2{fill:#FFFFFF;}
</style>
<g id="Black__x26__White">
</g>
<g id="White__x26__Black">
</g>
<g id="Color">
	<g>
		<path class="st0" d="M145.8,108.4c-0.3-0.1-0.5-0.3-0.8-0.4c-1.8-0.6-3.6-0.5-5.2,0.2c-0.3,0.2-0.7,0.1-1-0.2L105,74.3
			c-8.6-8.6-22.5-8.6-31.1,0c-0.7,0.7-0.7,1.7,0,2.4c0.7,0.7,1.7,0.7,2.4,0c7.3-7.3,19.1-7.3,26.3,0l33.8,33.8
			c0.3,0.3,0.3,0.6,0.2,1c-0.7,1.6-0.9,3.4-0.2,5.2c0.1,0.3,0.2,0.5,0.4,0.8c1.5,2.8,4.6,4.1,7.6,3.3c0.6-0.1,1.2-0.4,1.7-0.7
			c2.1-1.3,3.3-3.4,3.3-5.8C149.3,111.9,148,109.7,145.8,108.4z M145,116.6c-0.6,0.6-1.4,1-2.3,1c-0.9,0-1.7-0.3-2.3-1s-1-1.4-1-2.3
			c0-0.9,0.3-1.7,1-2.3c0.6-0.6,1.4-1,2.3-1c0.9,0,1.7,0.3,2.3,1c0.6,0.6,1,1.4,1,2.3C145.9,115.2,145.6,116,145,116.6z"/>
		<path class="st0" d="M106.1,103c-0.7-0.7-1.7-0.7-2.4,0c-7.3,7.3-19.1,7.3-26.3,0L43.6,69.1c-0.3-0.3-0.3-0.6-0.2-1
			c1.2-2.5,0.7-5.5-1.3-7.6c-2.6-2.6-6.8-2.6-9.4,0c-2.6,2.6-2.6,6.8,0,9.4c1.3,1.3,3,2,4.7,2c1,0,1.9-0.2,2.8-0.6
			c0.3-0.2,0.7-0.1,1,0.2L75,105.4c4.2,4.2,9.7,6.4,15.6,6.4c5.9,0,11.4-2.3,15.6-6.4C106.8,104.7,106.8,103.7,106.1,103z M35,67.7
			c-1.3-1.3-1.3-3.4,0-4.6c0.6-0.6,1.5-1,2.3-1c0.8,0,1.7,0.3,2.3,1c1.3,1.3,1.3,3.4,0,4.6C38.4,68.9,36.3,68.9,35,67.7z"/>
		<path class="st0" d="M173.4,110.3c-0.3-0.1-0.6-0.3-0.8-0.4c-1.8-0.6-3.6-0.5-5.1,0.3c-0.3,0.2-0.7,0.1-1-0.2l-5.3-5.3
			c-1.7-1.7-4.1-2.7-6.5-2.7h-7.2c-1.5,0-3-0.6-4.1-1.7l-32.2-32.2C99.3,56.2,80,56.1,68,67.9l-0.1,0l-0.2,0.2
			c-2.3,2.3-4.2,5-5.7,7.9c-0.4,0.7-0.2,1.6,0.4,2.2c0.9,0.7,2.1,0.4,2.6-0.6c1.3-2.5,2.9-4.8,4.9-6.9l0.1,0l0.2-0.2
			c10.7-10.7,28-10.7,38.6,0l32.2,32.2c1.7,1.7,4,2.7,6.5,2.7h7.2c1.5,0,3,0.6,4.1,1.7l5.4,5.4c0.2,0.2,0.3,0.6,0.2,0.9
			c-1.5,3.1-0.4,7.1,3.1,8.9c0.3,0.1,0.6,0.3,0.9,0.3c2.5,0.8,5,0.1,6.8-1.6C178.1,117.9,177.5,112.6,173.4,110.3z M172.6,118.6
			c-0.6,0.6-1.4,1-2.3,1c-0.9,0-1.7-0.3-2.3-1c-1.3-1.3-1.3-3.4,0-4.6c0.6-0.6,1.4-1,2.3-1c0.9,0,1.7,0.3,2.3,1
			C173.9,115.2,173.9,117.3,172.6,118.6z"/>
		<path class="st0" d="M117.1,101.2c-0.8-0.3-1.8,0.1-2.1,0.9c-1.3,2.6-3,5-5.1,7.1l-0.1,0.1c-10.7,10.5-27.9,10.5-38.5-0.1L39,76.9
			c-1.7-1.7-4-2.7-6.5-2.7h-7.2c-1.5,0-3-0.6-4.1-1.7l-5.3-5.3c-0.3-0.3-0.3-0.6-0.2-1c0.7-1.6,0.9-3.4,0.2-5.2
			c-0.1-0.3-0.2-0.5-0.4-0.8c-1.3-2.3-3.5-3.6-5.9-3.6c-1.8,0-3.5,0.7-4.7,2c0,0,0,0,0,0c-1.8,1.8-2.4,4.3-1.6,6.9
			c0.1,0.3,0.2,0.6,0.4,0.9c1.2,2.3,3.5,3.7,6,3.7c1,0,2-0.2,2.8-0.6c0.3-0.2,0.7-0.1,1,0.2l5.3,5.3c1.7,1.7,4,2.7,6.5,2.7h7.2
			c1.5,0,3,0.6,4.1,1.7l32.2,32.2c6,6,13.9,9,21.7,9s15.7-3,21.7-9l0.5-0.5v0c2.1-2.2,3.9-4.7,5.2-7.5
			C118.5,102.7,118.1,101.6,117.1,101.2z M7.4,65.7c-0.6-0.6-1-1.4-1-2.3c0-0.9,0.3-1.7,1-2.3h0c0.6-0.6,1.4-1,2.3-1
			c0.9,0,1.7,0.3,2.3,1c0.6,0.6,1,1.4,1,2.3c0,0.9-0.3,1.7-1,2.3c-0.6,0.6-1.4,1-2.3,1C8.9,66.7,8,66.3,7.4,65.7z"/>
		<path class="st0" d="M135.9,126.8l-2.8-2.8c-2.7-2.7-4-6.3-4-9.8l-6-6c-1.8,3.3-4.2,6.5-7.1,9.3c-15.1,14.6-39.3,13.8-54.1-1
			l-0.3-0.3l0,0l-5.7-5.7l0,0c0,0,0,0,0,0L41.8,96.4c0.7,5.2,2.3,10.2,4.5,14.7c1,2.1,0.7,4.6-0.8,6.4l0,0c0,0,0,0,0,0l-5.2,6.2
			c-0.1,0.2-0.2,0.3-0.3,0.5c-0.1,0.2-0.2,0.5-0.3,0.7c0,0,0,0.1,0,0.1c-0.2,1,0.1,2,0.8,2.8l9.8,9.8l1.2,1.2
			c0.1,0.1,0.1,0.1,0.2,0.2c0,0,0,0,0,0c0.1,0.1,0.3,0.2,0.4,0.3c1.1,0.6,2.5,0.5,3.5-0.3l2.5-2.1l3.7-3c1.7-1.4,4-1.7,6-0.8l0,0
			c0.4,0.2,0.9,0.4,1.3,0.6c0,0,0,0,0,0c0.6,0.3,1.1,0.5,1.7,0.7c0.6,0.2,1.1,0.5,1.7,0.7c0,0,0,0,0,0c0.5,0.2,0.9,0.3,1.4,0.5l0,0
			c2.1,0.7,3.5,2.6,3.7,4.8l0.5,4.8l0.3,3.2c0.1,1.4,1.3,2.6,2.7,2.8c0,0,0.1,0,0.1,0c0,0,0,0,0,0c0.1,0,0.2,0,0.3,0h0.8l14.8,0
			c1.1,0,2-0.5,2.6-1.4c0,0,0-0.1,0.1-0.1c0.1-0.2,0.3-0.5,0.3-0.7c0-0.1,0-0.2,0.1-0.3c0-0.1,0-0.2,0-0.3l0.8-8.1
			c0-0.1,0-0.2,0-0.4c0,0,0,0,0,0c0.3-2,1.7-3.7,3.7-4.3c1.1-0.4,2.1-0.8,3.2-1.2s2.1-0.9,3.1-1.4c1.8-0.9,4-0.7,5.6,0.5
			c0,0,0,0,0,0c0.1,0.1,0.2,0.1,0.3,0.2l6.2,5.2c0.2,0.1,0.3,0.2,0.5,0.3c0.2,0.1,0.5,0.2,0.8,0.3c0,0,0.1,0,0.1,0
			c1,0.2,2-0.1,2.8-0.8l8.5-8.5C136.9,129.5,136.9,127.8,135.9,126.8z"/>
		<path class="st0" d="M138.5,52.1l-9.8-9.8l-1.2-1.2c-0.1-0.1-0.1-0.1-0.2-0.2c0,0,0,0,0,0c-0.1-0.1-0.3-0.2-0.4-0.3
			c-1.1-0.6-2.5-0.5-3.5,0.3l-2.5,2.1l-3.7,3.1c-1.7,1.4-4,1.7-6,0.7c0,0,0,0,0,0c-0.4-0.2-0.9-0.4-1.3-0.6c0,0,0,0,0,0
			c-0.6-0.3-1.1-0.5-1.7-0.7s-1.1-0.5-1.7-0.7c0,0,0,0,0,0c-0.5-0.2-0.9-0.3-1.4-0.5l0,0c-2.1-0.7-3.5-2.6-3.7-4.8l-0.4-4.8
			l-0.3-3.2c-0.1-1.4-1.3-2.6-2.7-2.8c0,0-0.1,0-0.1,0c0,0,0,0,0,0c-0.1,0-0.2,0-0.3,0h-0.8l-14.8,0c-1.1,0-2,0.5-2.6,1.4
			c0,0,0,0.1-0.1,0.1c-0.1,0.2-0.3,0.5-0.3,0.7c0,0.1,0,0.2-0.1,0.3c0,0.1,0,0.2,0,0.3l-0.8,8.1c0,0.1,0,0.2,0,0.4c0,0,0,0,0,0
			c-0.3,2-1.7,3.7-3.7,4.3c-1.1,0.4-2.1,0.8-3.2,1.2c-1,0.4-2.1,0.9-3.1,1.4c-1.8,0.9-4,0.7-5.6-0.5c0,0,0,0,0,0
			c-0.1-0.1-0.2-0.1-0.3-0.2l-6.2-5.2c-0.2-0.1-0.3-0.2-0.5-0.3c-0.2-0.1-0.5-0.2-0.8-0.3c0,0-0.1,0-0.1,0c-1-0.2-2,0.1-2.8,0.8
			L43.7,49c-1,1-1,2.6,0,3.6l3.4,3.4c3,3,4.3,7,3.9,10.9l4.9,4.9c1.8-3.4,4.2-6.5,7.1-9.3c15.1-14.6,39.3-13.8,54.1,1l6,6l0,0l0,0
			l14.2,14.2c-0.7-5.3-2.2-10.2-4.4-14.8c-1-2.1-0.7-4.6,0.8-6.4l5.1-6.2c0.1-0.2,0.2-0.3,0.3-0.5c0.1-0.2,0.2-0.5,0.3-0.7
			c0,0,0-0.1,0-0.1C139.5,53.9,139.2,52.9,138.5,52.1z"/>
	</g>
</g>
</svg>
