<?xml version="1.0" encoding="UTF-8"?><svg version="1.1" width="187px" height="180px" viewBox="0 0 187.0 180.0" xmlns="http://www.w3.org/2000/svg" xmlns:xlink="http://www.w3.org/1999/xlink"><defs><clipPath id="i0"><path d="M156,0 C169.254834,-2.4348735e-15 180,10.745166 180,24 L180,156 C180,169.254834 169.254834,180 156,180 L24,180 C10.745166,180 -1.92946468e-15,169.254834 0,156 L0,24 C-1.623249e-15,10.745166 10.745166,-1.11784017e-15 24,0 L156,0 Z"></path></clipPath><filter id="i1" x="-7.90960452%" y="-9.4488189%" filterUnits="userSpaceOnUse" width="111.299435%" height="115.748031%"><feDropShadow stdDeviation="2" dx="0" dy="2" flood-color="rgba(0, 0, 0, 0.301464)"></feDropShadow></filter><clipPath id="i2"><path d="M0.483660131,6.31810533 C8.75962237,-2.10603511 22.302106,-2.10603511 30.6855483,6.31810533 L63.5744372,39.2586545 C63.8968773,39.5826599 64.2193174,39.6906617 64.5417574,39.4746581 C66.0464779,38.7186455 67.8736383,38.7186455 69.5933188,39.2586545 C69.8082789,39.3666563 70.0232389,39.5826599 70.345679,39.6906617 C72.4952796,40.9866833 73.7850399,43.1467193 74,45.5227589 C74,47.7907967 72.8177197,49.842831 70.7755991,51.1388526 C70.345679,51.3548562 69.7007988,51.6788616 69.1633987,51.7868634 C66.2614379,52.542876 63.2519971,51.2468544 61.7472767,48.5468093 C61.5323166,48.3308057 61.4248366,48.1148021 61.3173566,47.7907967 C60.6724764,46.0627679 60.8874365,44.2267373 61.5323166,42.7147121 C61.6397967,42.2827049 61.6397967,42.0667013 61.3173566,41.7426959 L28.4284677,8.69414494 C21.4422658,1.56602611 9.94190269,1.56602611 2.84822077,8.69414494 C2.09586057,9.34215575 1.12854031,9.34215575 0.483660131,8.69414494 C-0.161220044,7.93813234 -0.161220044,6.96611614 0.483660131,6.31810533 Z M67.3362382,42.1747031 C66.476398,42.1747031 65.6165577,42.6067103 65.0791576,43.1467193 C64.4342774,43.7947301 64.1118373,44.5507427 64.1118373,45.4147571 C64.1118373,46.2787715 64.5417574,47.0347841 65.0791576,47.6827949 C65.7240378,48.3308057 66.476398,48.6548111 67.3362382,48.6548111 C68.1960784,48.6548111 69.0559187,48.2228039 69.5933188,47.6827949 C70.130719,47.1427859 70.453159,46.2787715 70.5606391,45.4147571 C70.5606391,44.5507427 70.130719,43.6867283 69.5933188,43.1467193 C68.9484386,42.4987085 68.1960784,42.1747031 67.3362382,42.1747031 Z"></path></clipPath><clipPath id="i3"><path d="M1.89833551,1.9378882 C4.37531577,-0.645962733 8.46771794,-0.645962733 11.052393,1.9378882 C12.9908993,3.98343685 13.5293732,6.89026915 12.3447305,9.36645963 C12.2370357,9.79710145 12.2370357,10.0124224 12.5601201,10.3354037 L45.514727,43.3871636 C52.5148886,50.4927536 64.0382316,50.4927536 71.146088,43.3871636 C71.8999515,42.7412008 72.8692047,42.7412008 73.5153734,43.3871636 C74.1615422,44.0331263 74.1615422,45.0020704 73.5153734,45.7556936 C69.4229713,49.7391304 64.0382316,52 58.3304075,52 C52.6225834,52 47.2378437,49.8467909 43.1454416,45.7556936 L10.1908346,12.7039337 C9.86775026,12.3809524 9.54466587,12.2732919 9.22158149,12.4886128 C8.36002314,12.8115942 7.49846479,13.0269151 6.52921165,13.0269151 C4.80609494,13.0269151 3.19067304,12.3809524 1.89833551,11.0890269 C-0.686339543,8.61283644 -0.578644749,4.52173913 1.89833551,1.9378882 Z M6.52921165,3.55279503 C5.77534809,3.55279503 4.80609494,3.98343685 4.26762097,4.52173913 C2.97528345,5.70600414 2.97528345,7.7515528 4.26762097,9.04347826 C5.45226371,10.2277433 7.49846479,10.2277433 8.79080232,9.04347826 C10.0831398,7.85921325 10.0831398,5.8136646 8.79080232,4.52173913 C8.14463355,3.8757764 7.2830752,3.55279503 6.52921165,3.55279503 Z"></path></clipPath><clipPath id="i4"><path d="M6.12737554,8.46750748 C17.8280028,-2.92901202 36.5060683,-2.82149769 48.0993504,8.79005048 L79.3368048,40.0767219 C80.4102569,41.1518653 81.8057445,41.689437 83.3085774,41.689437 L90.3933609,41.689437 C92.7549554,41.689437 95.1165499,42.657066 96.7267279,44.269781 L101.879298,49.4304691 C102.201333,49.7530121 102.523369,49.8605264 102.845405,49.6454977 C104.240892,48.7853831 106.065761,48.7853831 107.783284,49.3229547 C107.997974,49.4304691 108.212665,49.6454977 108.5347,49.7530121 C112.506473,52.0108131 113.043199,57.1715012 110.252224,60.1819026 C108.427355,61.7946176 106.065761,62.4397036 103.596821,61.6871033 C103.274785,61.6871033 103.060095,61.4720746 102.738059,61.3645603 C99.3030128,59.5368166 98.2295608,55.6663005 99.7323936,52.6558991 C99.8397388,52.3333561 99.7323936,52.0108131 99.5177032,51.7957844 L94.2577882,46.527582 C93.1843362,45.4524387 91.7888485,44.914867 90.2860157,44.914867 L83.3085774,44.914867 C80.8396377,44.914867 78.5853884,43.947238 76.9752103,42.334523 L45.7377559,11.0478515 C35.4326163,0.618961031 18.6867644,0.618961031 8.27427963,11.0478515 L8.05958922,11.2628802 L7.95224402,11.2628802 C6.02003034,13.3056525 4.51719748,15.4559392 3.22905503,17.928769 C2.69232901,18.896398 1.51153176,19.1114266 0.652770128,18.4663406 C0.00869890216,17.8212546 -0.205991506,16.9611399 0.223389311,16.3160539 C1.72622217,13.5206812 3.55109064,10.9403372 5.80533993,8.68253615 L6.02003034,8.46750748 Z M105.529035,52.3333561 C104.670273,52.3333561 103.811511,52.7634135 103.274785,53.3009851 C101.986643,54.4836428 101.986643,56.5264152 103.274785,57.8165872 C103.918857,58.4616732 104.670273,58.7842162 105.529035,58.7842162 C106.387796,58.7842162 107.246558,58.3541589 107.783284,57.8165872 C108.964081,56.5264152 108.964081,54.4836428 107.783284,53.3009851 C107.139213,52.6558991 106.387796,52.3333561 105.529035,52.3333561 Z"></path></clipPath><clipPath id="i5"><path d="M6.50352044,0 C8.75989299,0 10.9088192,1.28942808 12.198175,3.54592721 C12.4130676,3.76083189 12.5205139,3.97573657 12.6279602,4.29809359 C13.2726381,6.01733102 13.0577455,7.8440208 12.4130676,9.34835355 C12.3056213,9.77816291 12.3056213,9.99306759 12.6279602,10.3154246 L17.7853832,15.5805893 C18.8598463,16.6551127 20.2566484,17.1923744 21.7608967,17.1923744 L28.744907,17.1923744 C31.2161722,17.1923744 33.4725447,18.1594454 35.0842394,19.7712305 L66.4585625,51.1473137 C76.7734084,61.4627383 93.4275868,61.4627383 103.849879,51.254766 L103.957325,51.1473137 C105.998805,49.1057192 107.6105,46.8492201 108.899856,44.270364 C109.222195,43.5181976 110.189211,43.0883882 110.941336,43.4107452 C111.908352,43.7331023 112.338138,44.8076256 111.69346,45.4523397 C110.404104,48.1386482 108.684963,50.610052 106.643483,52.7590988 L106.106252,53.2963605 C100.304151,59.0987868 92.6754626,62 85.0467745,62 C77.5255326,62 69.7893982,59.0987868 63.9872973,53.2963605 L32.7204205,22.0277296 C31.6459574,20.9532062 30.2491554,20.4159445 28.744907,20.4159445 L21.7608967,20.4159445 C19.2896316,20.4159445 17.033259,19.4488735 15.4215643,17.8370884 L10.2641414,12.6793761 C9.94180242,12.3570191 9.61946349,12.2495667 9.29712455,12.4644714 C8.54500037,12.7868284 7.57798356,13.0017331 6.61096675,13.0017331 C4.24714789,13.0017331 1.99077534,11.712305 0.808865908,9.45580589 C0.593973284,9.13344887 0.486526972,8.91854419 0.37908066,8.59618718 C-0.480489835,6.12478336 0.164188036,3.65337955 1.88332903,1.93414211 C3.06523846,0.644714038 4.78437945,0 6.50352044,0 Z M6.61096675,3.43847487 C5.75139626,3.43847487 4.89182576,3.86828423 4.3545942,4.40554593 C3.70991633,5.05025997 3.38757739,5.80242634 3.38757739,6.66204506 C3.38757739,7.52166378 3.81736264,8.3812825 4.3545942,8.91854419 C4.89182576,9.45580589 5.75139626,9.88561525 6.61096675,9.88561525 C7.47053725,9.88561525 8.33010774,9.45580589 8.8673393,8.91854419 C9.51201717,8.27383016 9.83435611,7.52166378 9.83435611,6.66204506 C9.83435611,5.80242634 9.40457086,4.94280763 8.8673393,4.40554593 C8.22266143,3.76083189 7.47053725,3.43847487 6.61096675,3.43847487 Z"></path></clipPath><clipPath id="i6"><path d="M2.09935268,0 L15.7974987,13.5979798 L21.3623705,19.1656566 L21.6834208,19.4868687 C36.0236673,33.8343434 59.460339,34.5838384 74.1216358,20.4505051 C76.9040717,17.7737374 79.2584406,14.6686869 80.9707088,11.4565657 L86.7496141,17.2383838 C86.7496141,20.6646465 88.0338153,24.1979798 90.6022177,26.7676768 L93.2776368,29.4444444 C94.2407877,30.4080808 94.2407877,32.1212121 93.2776368,32.6565657 L85.0373459,40.9010101 C84.2882285,41.5434343 83.3250776,41.8646465 82.3619268,41.6505051 L82.25491,41.6505051 C82.0408765,41.5434343 81.7198262,41.4363636 81.5057926,41.3292929 C81.2917591,41.2222222 81.1847423,41.1151515 80.9707088,41.0080808 L74.9777699,35.9757576 C74.8707532,35.8686869 74.7637364,35.8686869 74.6567196,35.7616162 C73.0514682,34.5838384 70.9111329,34.369697 69.1988646,35.2262626 C68.2357137,35.7616162 67.2725628,36.189899 66.2023952,36.6181818 C65.1322275,37.0464646 64.1690766,37.3676768 63.098909,37.7959596 C61.1726072,38.4383838 59.888406,40.0444444 59.5673557,41.9717172 L59.5673557,42.4 L58.8182384,50.2161616 L58.8182384,50.5373737 C58.7112216,50.6444444 58.7112216,50.7515152 58.7112216,50.8585859 C58.7112216,50.9656566 58.4971881,51.2868687 58.3901713,51.5010101 C58.2831545,51.5010101 58.2831545,51.6080808 58.2831545,51.6080808 C57.6410539,52.4646465 56.7849198,53 55.7147522,53 L40.1973212,53 C38.91312,52.8929293 37.7359356,51.7151515 37.6289188,50.3232323 L37.3078685,47.2181818 L36.7727847,42.6141414 C36.6657679,40.579798 35.27455,38.6525253 33.2412314,38.010101 C32.7061476,37.7959596 32.3850973,37.6888889 31.8500135,37.4747475 C31.3149296,37.3676768 30.7798458,37.0464646 30.244762,36.8323232 C29.7096782,36.7252525 29.1745943,36.5111111 28.6395105,36.189899 C28.2114434,36.0828283 27.7833764,35.8686869 27.3553093,35.6545455 C25.4290075,34.7979798 23.1816555,35.0121212 21.576404,36.4040404 L18.0448507,39.2949495 L15.5834651,41.3292929 C14.6203142,42.1858586 13.2290963,42.1858586 12.1589286,41.6505051 C12.0519119,41.5434343 11.8378783,41.4363636 11.7308616,41.3292929 L11.516828,41.1151515 L10.3396436,39.9373737 L0.815151496,30.4080808 C0.173050904,29.6585859 -0.147999393,28.6949495 0.0660341383,27.7313131 L0.0660341383,27.6242424 C0.173050904,27.5171717 0.280067669,27.1959596 0.387084435,26.9818182 C0.4941012,26.7676768 0.601117965,26.6606061 0.708134731,26.4464646 L5.73792271,20.4505051 C7.12914066,18.7373737 7.45019095,16.2747475 6.48704006,14.240404 C4.34670476,9.85050505 2.74145327,5.03232323 2.09935268,0 Z"></path></clipPath><clipPath id="i7"><path d="M53.6602597,0 C54.9539274,0.108433735 56.1397895,1.30120482 56.2475951,2.71084337 L56.5710121,5.85542169 L56.894429,10.626506 C57.0022346,12.686747 58.403708,14.6385542 60.4520153,15.2891566 C60.9910435,15.5060241 61.3144604,15.6144578 61.8534887,15.8313253 C62.3925169,15.939759 62.9315451,16.373494 63.4705733,16.4819277 C64.0096016,16.5903614 64.5486298,16.8072289 65.087658,17.1325301 C65.5188806,17.2409639 65.9501032,17.4578313 66.3813257,17.6746988 C68.3218273,18.6506024 70.5857459,18.4337349 72.2028306,17.0240964 L75.7604168,13.9879518 L78.2399467,11.9277108 C79.2101975,11.060241 80.6116708,11.060241 81.6897273,11.6024096 C81.7975329,11.7108434 82.0131442,11.8192771 82.1209499,11.9277108 C82.1479013,11.9548193 82.1681148,11.9751506 82.1849595,11.9920934 L82.3365612,12.1445783 L83.5224233,13.3373494 L93.1171256,22.9879518 C93.7639595,23.746988 94.0873764,24.7228916 93.9795708,25.8072289 L93.9795708,25.9156627 C93.8717651,26.0240964 93.7639595,26.3493976 93.6561539,26.5662651 C93.5483482,26.7831325 93.4405426,26.8915663 93.3327369,27.1084337 L88.3736773,33.1807229 C86.9722039,34.9156627 86.6487869,37.4096386 87.6190377,39.4698795 C89.7751506,44.0240964 91.2844297,48.7951807 91.9312635,54 L78.132141,40.1204819 L72.3106362,34.2650602 C57.8646798,19.7349398 34.2552436,18.9759036 19.4858703,33.2891566 C16.6829235,36 14.3111993,39.0361446 12.586309,42.3975904 L7.84286065,37.626506 C8.27408323,33.7228916 6.9804155,29.8192771 4.06966309,26.8915663 L0.727688102,23.5301205 C-0.242562701,22.5542169 -0.242562701,20.9277108 0.727688102,19.9518072 L8.59750017,12.253012 C9.35213968,11.6024096 10.3223905,11.2771084 11.2926413,11.4939759 L11.4711944,11.5753012 C11.6632232,11.6566265 11.8855723,11.7379518 12.0472808,11.8192771 C12.2628921,11.9277108 12.3706977,12.0361446 12.586309,12.1445783 L18.6234251,17.2409639 C18.7312308,17.3493976 18.8390364,17.3493976 18.9468421,17.4578313 C20.5639267,18.6506024 22.7200396,18.8674699 24.4449299,18 C25.4151807,17.4578313 26.4932372,17.0240964 27.463488,16.5903614 C28.5415444,16.1566265 29.5117952,15.8313253 30.5898517,15.3975904 C32.5303533,14.746988 33.824021,13.1204819 34.147438,11.1686747 L34.147438,10.7349398 L34.9020775,2.81927711 L34.9020775,2.4939759 C35.0098831,2.38554217 35.0098831,2.27710843 35.0098831,2.1686747 C35.0098831,2.06024096 35.2254944,1.73493976 35.3333001,1.51807229 C35.4411057,1.51807229 35.4411057,1.40963855 35.4411057,1.40963855 C36.0879396,0.542168675 36.9503847,0 38.0284412,0 Z"></path></clipPath></defs><g clip-path="url(#i0)" transform="translate(4.0 0.0)"><polygon points="0,0 180,0 180,180 0,180 0,0" stroke="none" fill="#572C79"></polygon></g><g transform="translate(9.0 30.0)"><g filter="url(#i1)"><g transform="translate(69.00000000000001 37.99999999999999)"><g clip-path="url(#i2)"><polygon points="5.55111512e-17,0 74,0 74,52 5.55111512e-17,52 5.55111512e-17,0" stroke="none" fill="#FFFFFF"></polygon></g></g><g transform="translate(27.0 29.000000000000007)"><g clip-path="url(#i3)"><polygon points="-2.52439549e-16,-2.22044605e-16 74,-2.22044605e-16 74,52 -2.52439549e-16,52 -2.52439549e-16,-2.22044605e-16" stroke="none" fill="#FFFFFF"></polygon></g></g><g transform="translate(57.0 30.0)"><g clip-path="url(#i4)"><polygon points="-1.74153232e-17,-1.14262539e-15 112,-1.14262539e-15 112,62 -1.74153232e-17,62 -1.74153232e-17,-1.14262539e-15" stroke="none" fill="#FFFFFF"></polygon></g></g><g transform="translate(0.0 28.0)"><g clip-path="url(#i5)"><polygon points="-1.68157815e-16,0 112,0 112,62 -1.68157815e-16,62 -1.68157815e-16,0" stroke="none" fill="#FFFFFF"></polygon></g></g><g transform="translate(36.0 66.0)"><g clip-path="url(#i6)"><polygon points="2.93020005e-15,0 94,0 94,53 2.93020005e-15,53 2.93020005e-15,0" stroke="none" fill="#FFFFFF"></polygon></g></g><g transform="translate(39.0 0.0)"><g clip-path="url(#i7)"><polygon points="-1.88737914e-15,0 94,0 94,54 -1.88737914e-15,54 -1.88737914e-15,0" stroke="none" fill="#FFFFFF"></polygon></g></g></g></g></svg>